<svg xmlns="http://www.w3.org/2000/svg" width="84.5%" height="84.5%">
  <title>arrow_left</title>
  <g
    id="g840"
    transform="translate(110.5799,33.218)"><path
      d="M 0,0 -4.884,-2.931 V 27.144 L 0,24.213 Z"
      style="fill:#c6ae2e;fill-opacity:1;fill-rule:nonzero;stroke:none"
      id="path842" /></g><g
    id="g844"
    transform="translate(55.2215,76.6438)"><path
      d="M 0,0 4.885,-2.931 V -15.759 L 0,-16.202 Z"
      style="fill:#c6ae2e;fill-opacity:1;fill-rule:nonzero;stroke:none"
      id="path846" /></g>
  <g
    id="g848"
    transform="translate(51.9656,60.4353)"><path
      d="M 0,0 C -0.002,-0.917 0.382,-1.791 1.058,-2.409 1.733,-3.028 2.639,-3.333 3.551,-3.25 L 50.474,1.006 V -31.24 L 3.551,-26.984 C 2.64,-26.901 1.736,-27.206 1.061,-27.822 0.385,-28.439 0,-29.312 0,-30.226 V -45.5 L -31.835,-15.113 0,15.274 Z"
      style="fill:#f6f56b;fill-opacity:1;fill-rule:nonzero;stroke:none"
      id="path850"
  />
      </g><g
    id="g852"
    transform="translate(60.1062,16.9362)"><path
      d="M 0,0 -4.885,-2.931 V 13.273 L 0,12.83 Z"
      style="fill:#c6ae2e;fill-opacity:1;fill-rule:nonzero;stroke:none"
      id="path854" /></g><g
    id="g856"
    transform="translate(51.9656,14.9353)"><path
      d="m 0,0 v 15.274 c 0,0.914 0.385,1.787 1.061,2.404 0.675,0.616 1.579,0.921 2.49,0.838 L 50.474,14.26 V 46.506 L 3.551,42.25 C 2.639,42.167 1.733,42.472 1.058,43.091 0.382,43.709 -0.002,44.583 0,45.5 V 60.774 L -31.835,30.387 Z m 3.256,-0.93 4.885,2.931 v 12.83 l -4.885,0.443 z m 4.885,59.708 -4.885,2.93 V 45.506 l 4.885,0.443 z M 53.73,15.352 58.614,18.283 V 42.496 L 53.73,45.427 Z M 0.504,65.756 c 0.529,0.502 1.327,0.592 1.954,0.219 l 7.359,-4.412 c 0.978,-0.59 1.577,-1.648 1.579,-2.79 V 46.236 c 44.377,4.03 40.89,3.852 41.544,3.456 l 7.352,-4.41 c 0.978,-0.591 1.576,-1.649 1.579,-2.791 V 18.283 C 61.867,17.14 61.269,16.082 60.29,15.49 52.406,10.761 52.701,10.796 51.955,10.849 L 11.396,14.535 V 1.998 C 11.394,0.854 10.794,-0.204 9.816,-0.795 L 2.466,-5.204 C 1.84,-5.577 1.041,-5.488 0.513,-4.986 l -34.597,33.017 c -0.643,0.615 -1.007,1.465 -1.007,2.355 0,0.89 0.364,1.741 1.007,2.355 z"
      style="fill:#231f20;fill-opacity:1;fill-rule:nonzero;stroke:none"
      id="path858" /></g>
</svg>
