<?xml version="1.0" encoding="UTF-8" standalone="no"?>
<svg
   xmlns:dc="http://purl.org/dc/elements/1.1/"
   xmlns:cc="http://creativecommons.org/ns#"
   xmlns:rdf="http://www.w3.org/1999/02/22-rdf-syntax-ns#"
   xmlns:svg="http://www.w3.org/2000/svg"
   xmlns="http://www.w3.org/2000/svg"
   xmlns:sodipodi="http://sodipodi.sourceforge.net/DTD/sodipodi-0.dtd"
   xmlns:inkscape="http://www.inkscape.org/namespaces/inkscape"
   sodipodi:docname="logo-saint-ex.svg"
   inkscape:version="1.0 (1.0+r73+1)"
   id="svg1214"
   version="1.1"
   viewBox="0 0 38.292259 16.67898"
   height="16.67898mm"
   width="38.292259mm">
  <defs
     id="defs1208" />
  <sodipodi:namedview
     inkscape:window-maximized="1"
     inkscape:window-y="27"
     inkscape:window-x="67"
     inkscape:window-height="1025"
     inkscape:window-width="1853"
     showgrid="false"
     inkscape:document-rotation="0"
     inkscape:current-layer="layer1"
     inkscape:document-units="mm"
     inkscape:cy="628.66219"
     inkscape:cx="1100.9347"
     inkscape:zoom="0.35"
     inkscape:pageshadow="2"
     inkscape:pageopacity="0.0"
     borderopacity="1.0"
     bordercolor="#666666"
     pagecolor="#ffffff"
     id="base" />
  <metadata
     id="metadata1211">
    <rdf:RDF>
      <cc:Work
         rdf:about="">
        <dc:format>image/svg+xml</dc:format>
        <dc:type
           rdf:resource="http://purl.org/dc/dcmitype/StillImage" />
        <dc:title></dc:title>
      </cc:Work>
    </rdf:RDF>
  </metadata>
  <g
     transform="translate(185.45565,18.166871)"
     id="layer1"
     inkscape:groupmode="layer"
     inkscape:label="Calque 1">
    <path
       d="m -157.70474,-15.168613 h -2.43276 v 0.760236 h 2.43276 z m 4.9537,2.959806 v -0.740834 h -2.89101 l -0.49283,-0.51188 v -1.428397 h 2.94463 v -0.771525 h -2.94463 v -1.199092 l 0.49283,-0.51188 h 2.89101 v -0.741187 h -3.19264 l -0.95144,0.951089 v 3.983567 l 0.95144,0.951089 h 3.19264 z m -9.785,-0.863247 0.8629,0.882297 h 1.02411 v -0.706614 h -0.74118 l -0.45826,-0.458258 v -2.135012 h 1.19944 v -0.668161 h -1.19944 v -1.9558 h -0.68757 v 1.9558 h -0.5461 v 0.668161 h 0.5461 z m -13.39779,4.1973494 v -0.1943806 l -0.35172,-0.3517194 h -0.7941 l -0.35172,0.3517194 v 1.5352892 l 0.35172,0.282575 h 0.7941 l 0.35172,-0.282575 v -0.210256 h -0.22966 v 0.106892 c -0.0684,0.05362 -0.14111,0.122414 -0.19473,0.175683 h -0.63359 l -0.19509,-0.175683 v -1.3211529 l 0.20991,-0.2102557 h 0.61877 l 0.21025,0.2102557 v 0.1065389 h 0.21026 v -0.022931 z m 2.11561,-0.56515 v 2.1847526 h 1.49719 v -0.229305 h -1.26789 v -1.9399253 h -0.2293 z m 22.65609,-2.7499024 0.89747,-1.355725 0.89747,1.355725 h 0.81385 l -0.10724,-0.175684 c -0.51153,-0.794455 -0.89747,-1.374775 -1.19909,-1.798813 l 1.3215,-1.974498 h -0.82902 l -0.89747,1.355725 -0.89747,-1.355725 h -0.82867 l 1.3215,1.993548 -1.3215,1.955447 z m -24.47431,2.7499024 v 1.8866556 l 0.35137,0.282928 h 0.79445 l 0.35137,-0.282928 v -1.8866556 h -0.22895 v 1.7797636 c -0.0688,0.05362 -0.14111,0.122414 -0.19474,0.175684 h -0.63429 l -0.19438,-0.175684 v -1.7797636 z m 3.9684,2.1886336 v -1.940278 h 0.66851 v -0.2293056 h -1.58503 v 0.2293056 h 0.68757 v 1.940278 z m 5.67549,-7.741708 0.45826,-0.458612 h 0.79445 c 0.0878,0.08784 0.17568,0.175684 0.28293,0.282928 0.0533,0.05327 0.12171,0.122061 0.17568,0.175684 v 2.803172 h 0.70662 v -3.0861 l -0.8823,-0.881945 h -1.34091 l -0.019,0.01905 c -0.0533,0.05327 -0.10654,0.106892 -0.16051,0.160514 v -0.179564 h -0.70662 v 3.968045 h 0.68757 v -2.803172 z m -17.08397,13.505038 h 1.53564 v -16.67898 h -1.53564 z m 25.16187,-2.696633 v -0.351367 l -0.26352,-0.263525 h -1.16487 v 0.863247 h 1.12677 z m 9.32674,-0.213784 h -0.28293 v -0.141463 l -0.26317,-0.263525 h -0.76023 l -0.26353,0.263525 v 0.351366 c 0.0194,0.0194 0.0536,0.05362 0.0688,0.06879 0.0688,0.06879 0.14147,0.122414 0.21026,0.175683 h 0.82867 l 0.45826,0.477309 v 0.706613 l -0.43921,0.351369 h -0.98919 l -0.4392,-0.351367 v -0.259644 h 0.28257 v 0.122414 l 0.24836,0.209903 h 0.7941 c 0.0878,-0.06844 0.17568,-0.141111 0.24836,-0.209903 v -0.458611 l -0.29775,-0.297745 h -0.80963 l -0.47766,-0.404636 v -0.603603 l 0.43921,-0.439208 h 0.98954 l 0.43886,0.439208 v 0.263525 z m -2.37948,2.012598 h -0.28258 v -2.134659 c -0.24836,0.423686 -0.49248,0.828675 -0.75988,1.286934 h -0.24836 l -0.75988,-1.286934 v 2.150181 h -0.28293 v -2.715683 h 0.2981 l 0.86324,1.482019 c 0.28258,-0.477308 0.58033,-0.970139 0.8629,-1.482019 h 0.2981 z m -2.87585,-2.398184 h -0.2981 v 2.115961 h 0.2981 v 0.282223 h -0.86325 v -0.282223 h 0.28258 v -2.115961 h -0.28258 v -0.282927 h 0.86325 z m -1.39382,0 h -1.56634 v 0.862895 h 1.35608 v 0.298097 h -1.35608 v 0.970139 h 1.56634 v 0.282575 h -1.86761 v -2.715683 h 1.86761 z m -2.71181,2.398184 -0.68756,-1.252361 h -0.70661 v 1.252361 h -0.28258 v -2.696281 h 1.56951 l 0.42404,0.439208 v 0.599723 l -0.47731,0.404989 h -0.21026 c 0.21026,0.389466 0.45861,0.828675 0.68757,1.252361 z m -21.21252,-3.475567 v -12.305594 h -1.53529 v 16.67898 h 33.53329 v -4.373386 z m -6.29426,2.52095 1.53528,1.535289 v -16.361833 h -1.53528 z m 16.9806,-8.84943 h 0.68721 v -3.968045 h -1.21814 v 0.687564 h 0.52705 v 3.280481 z m -3.70487,-1.305984 c 0.54645,-0.336197 0.86325,-0.52705 1.09255,-0.687563 0.10689,-0.06879 0.21026,-0.141464 0.3168,-0.194734 h 0.29809 v 1.038931 c -0.10724,0.106891 -0.19508,0.194733 -0.28292,0.282575 -0.0533,0.05327 -0.12171,0.106891 -0.17534,0.17533 h -0.79445 l -0.45861,-0.457905 v -0.156634 z m 1.53564,1.286934 0.17568,-0.175684 v 0.175684 h 0.70662 v -3.06705 l -0.8823,-0.881945 h -1.35996 l -0.87841,0.881945 v 0.618772 h 0.68756 v -0.335844 l 0.45826,-0.458612 h 0.79445 l 0.37077,0.37077 h -0.38982 l -1.9057,1.164872 v 0.847725 l 0.88229,0.882297 h 1.34056 z m 2.87196,-5.904795 h -0.68756 v 0.897467 h 0.68756 z m -6.75252,5.923845 0.98919,-0.809625 v -1.585031 l -1.03893,-1.05798 h -1.76459 c -0.10689,-0.08784 -0.2099,-0.160161 -0.29775,-0.248003 -0.0342,-0.03457 -0.0878,-0.06879 -0.14111,-0.122414 -0.0346,-0.01905 -0.0688,-0.06879 -0.10724,-0.106892 -0.0187,-0.01905 -0.0187,-0.01905 -0.0342,-0.03422 v -0.691444 l 0.51188,-0.511881 h 1.58503 l 0.51153,0.511881 v 0.336197 h 0.75988 v -0.614892 l -0.98883,-0.989542 h -2.15019 l -0.98954,0.989542 v 1.355725 l 1.05798,0.897467 h 1.7265 l 0.59972,0.599722 v 0.916517 l -0.0688,0.05362 c -0.14147,0.122061 -0.28258,0.248355 -0.42404,0.351366 h -1.63865 l -0.47696,-0.420158 v -0.317147 h -0.76024 v 0.687564 l 0.98919,0.809625 z m 18.32116,3.6858218 V -9.210549 h 0.93593 l 0.2099,0.2099027 v 0.282575 l -0.24836,0.1947334 h -0.89747 z m 1.37513,-0.087842 v -0.4928301 l -0.35136,-0.3513667 h -1.26824 v 2.184753 h 0.22931 v -1.0047113 h 0.58067 l 0.5461,1.0047113 h 0.26352 c -0.19473,-0.336198 -0.38982,-0.687564 -0.5461,-1.0047113 h 0.16016 z m 2.73086,0.9316862 c -0.0688,0.05362 -0.14147,0.122414 -0.21026,0.175684 h -0.74083 c -0.16016,-0.141112 -0.17569,-0.160162 -0.21026,-0.175684 v -1.3211526 l 0.21026,-0.2102554 h 0.72178 l 0.2099,0.2102554 v 1.3211526 z m 0.22895,-1.4245163 -0.35137,-0.3513667 h -0.91652 l -0.35136,0.3513667 v 1.5352883 l 0.35136,0.282575 h 0.70662 l 0.42404,0.424039 0.16016,-0.160514 -0.31715,-0.316794 0.28293,-0.229306 v -1.5352883 z m -1.92123,-0.1259417 v -0.2293056 h -0.70661 v 0.2293056 h 0.22965 v 1.710972 h -0.22965 v 0.248356 h 0.70661 v -0.229306 h -0.248 v -1.710972 h 0.248 z m -16.88888,-0.2293056 v 1.8866556 l 0.35136,0.282928 h 0.79446 l 0.35137,-0.282928 v -1.8866556 h -0.22896 v 1.7797636 c -0.0691,0.05362 -0.14146,0.122414 -0.19508,0.175684 h -0.63394 l -0.19474,-0.175684 v -1.7797636 z m 19.16147,0 v 1.8866556 l 0.35173,0.282928 h 0.7941 l 0.35172,-0.282928 v -1.8866556 h -0.22966 v 1.7797636 c -0.0684,0.05362 -0.14111,0.122414 -0.19474,0.175684 h -0.63006 l -0.19473,-0.175684 v -1.7797636 z m 3.31541,0.2293056 v -0.2293056 h -1.49719 v 2.1847526 h 1.49719 v -0.229305 h -1.26823 v -0.7754059 h 1.1116 v -0.2289527 h -1.1116 v -0.706614 h 1.26823 z m -8.55133,0 v -0.2293056 h -1.49719 v 2.1847526 h 1.49719 v -0.229305 h -1.26824 v -0.7754059 h 1.11125 v -0.2289527 h -1.11125 v -0.706614 h 1.26824 z m 8.8526,-1.990019 h -29.70988 v 0.370416 h 29.69119 v -0.370416 z m -14.38698,1.7607134 v 1.8866556 l 0.35137,0.282928 h 0.7941 l 0.35137,-0.282928 v -1.8866556 h -0.22896 v 1.7797636 c -0.0684,0.05362 -0.14111,0.122414 -0.19473,0.175684 h -0.63394 l -0.19474,-0.175684 v -1.7797636 z m -1.6383,0 h -0.24836 v 2.1847526 h 0.22896 v -1.7797636 l 1.11125,1.7797636 h 0.24835 v -2.1847526 h -0.22895 v 1.7797636 z m -4.70958,0.9359194 V -9.210549 H -167.7 l 0.21026,0.2099027 v 0.282575 l -0.248,0.1947334 h -0.89782 z m 1.37477,-0.087842 v -0.4928301 l -0.35137,-0.3513667 h -1.26753 v 2.184753 h 0.22896 v -1.0047113 h 0.58067 l 0.54575,1.0047113 h 0.26352 c -0.19438,-0.336198 -0.38911,-0.687564 -0.54575,-1.0047113 h 0.16052 z m 9.75078,-1.4474468 -0.37042,0.4392084 h 0.2981 l 0.45826,-0.4392084 z m -7.91704,0.828675 v -0.2293056 h -1.49719 v 2.1847526 h 1.49719 v -0.229305 h -1.26824 v -0.7754059 h 1.11125 v -0.2289527 h -1.11125 v -0.706614 h 1.26824 z m 6.85941,1.959328 v -2.184753 h -0.24835 c -0.24836,0.4046361 -0.47767,0.7944554 -0.70662,1.1990917 l -0.70661,-1.1990917 h -0.24836 v 2.184753 h 0.22931 v -1.7264946 l 0.61877,1.0389306 h 0.2099 c 0.21026,-0.3704169 0.42404,-0.706614 0.61877,-1.0389306 v 1.7264946 z"
       style="fill:#050606;fill-opacity:1;fill-rule:nonzero;stroke:none;stroke-width:0.352777"
       id="path190" />
  </g>
</svg>
